<svg id="visual" viewBox="0 0 1920 1080" width="1920" height="1080" xmlns="http://www.w3.org/2000/svg" xmlns:xlink="http://www.w3.org/1999/xlink" version="1.1"><rect x="0" y="0" width="1920" height="1080" fill="#e7e0d7"></rect><path d="M0 883L32 883.8C64 884.7 128 886.3 192 887.5C256 888.7 320 889.3 384 885.7C448 882 512 874 576 871.5C640 869 704 872 768 867.5C832 863 896 851 960 855.2C1024 859.3 1088 879.7 1152 885.8C1216 892 1280 884 1344 880.5C1408 877 1472 878 1536 873.2C1600 868.3 1664 857.7 1728 856.2C1792 854.7 1856 862.3 1888 866.2L1920 870L1920 1081L1888 1081C1856 1081 1792 1081 1728 1081C1664 1081 1600 1081 1536 1081C1472 1081 1408 1081 1344 1081C1280 1081 1216 1081 1152 1081C1088 1081 1024 1081 960 1081C896 1081 832 1081 768 1081C704 1081 640 1081 576 1081C512 1081 448 1081 384 1081C320 1081 256 1081 192 1081C128 1081 64 1081 32 1081L0 1081Z" fill="#e7e0d7"></path><path d="M0 862L32 861.8C64 861.7 128 861.3 192 868.3C256 875.3 320 889.7 384 897.7C448 905.7 512 907.3 576 901.7C640 896 704 883 768 880.7C832 878.3 896 886.7 960 891.7C1024 896.7 1088 898.3 1152 895.8C1216 893.3 1280 886.7 1344 888C1408 889.3 1472 898.7 1536 908.2C1600 917.7 1664 927.3 1728 926.2C1792 925 1856 913 1888 907L1920 901L1920 1081L1888 1081C1856 1081 1792 1081 1728 1081C1664 1081 1600 1081 1536 1081C1472 1081 1408 1081 1344 1081C1280 1081 1216 1081 1152 1081C1088 1081 1024 1081 960 1081C896 1081 832 1081 768 1081C704 1081 640 1081 576 1081C512 1081 448 1081 384 1081C320 1081 256 1081 192 1081C128 1081 64 1081 32 1081L0 1081Z" fill="#d6b79e"></path><path d="M0 919L32 919.2C64 919.3 128 919.7 192 928.2C256 936.7 320 953.3 384 954.7C448 956 512 942 576 940.2C640 938.3 704 948.7 768 953.5C832 958.3 896 957.7 960 948.3C1024 939 1088 921 1152 914.3C1216 907.7 1280 912.3 1344 915.3C1408 918.3 1472 919.7 1536 925.2C1600 930.7 1664 940.3 1728 940.7C1792 941 1856 932 1888 927.5L1920 923L1920 1081L1888 1081C1856 1081 1792 1081 1728 1081C1664 1081 1600 1081 1536 1081C1472 1081 1408 1081 1344 1081C1280 1081 1216 1081 1152 1081C1088 1081 1024 1081 960 1081C896 1081 832 1081 768 1081C704 1081 640 1081 576 1081C512 1081 448 1081 384 1081C320 1081 256 1081 192 1081C128 1081 64 1081 32 1081L0 1081Z" fill="#c88c6f"></path><path d="M0 962L32 966.8C64 971.7 128 981.3 192 983.5C256 985.7 320 980.3 384 976.8C448 973.3 512 971.7 576 968.5C640 965.3 704 960.7 768 967.5C832 974.3 896 992.7 960 1001.8C1024 1011 1088 1011 1152 1011.3C1216 1011.7 1280 1012.3 1344 1005.7C1408 999 1472 985 1536 975.3C1600 965.7 1664 960.3 1728 962.2C1792 964 1856 973 1888 977.5L1920 982L1920 1081L1888 1081C1856 1081 1792 1081 1728 1081C1664 1081 1600 1081 1536 1081C1472 1081 1408 1081 1344 1081C1280 1081 1216 1081 1152 1081C1088 1081 1024 1081 960 1081C896 1081 832 1081 768 1081C704 1081 640 1081 576 1081C512 1081 448 1081 384 1081C320 1081 256 1081 192 1081C128 1081 64 1081 32 1081L0 1081Z" fill="#b95d4d"></path><path d="M0 1040L32 1037.7C64 1035.3 128 1030.7 192 1028.8C256 1027 320 1028 384 1031.3C448 1034.7 512 1040.3 576 1039C640 1037.7 704 1029.3 768 1024C832 1018.7 896 1016.3 960 1018.2C1024 1020 1088 1026 1152 1026.7C1216 1027.3 1280 1022.7 1344 1021.7C1408 1020.7 1472 1023.3 1536 1021.3C1600 1019.3 1664 1012.7 1728 1010.5C1792 1008.3 1856 1010.7 1888 1011.8L1920 1013L1920 1081L1888 1081C1856 1081 1792 1081 1728 1081C1664 1081 1600 1081 1536 1081C1472 1081 1408 1081 1344 1081C1280 1081 1216 1081 1152 1081C1088 1081 1024 1081 960 1081C896 1081 832 1081 768 1081C704 1081 640 1081 576 1081C512 1081 448 1081 384 1081C320 1081 256 1081 192 1081C128 1081 64 1081 32 1081L0 1081Z" fill="#a7233a"></path></svg>