<svg id="visual" viewBox="0 0 900 600" width="900" height="600" xmlns="http://www.w3.org/2000/svg" xmlns:xlink="http://www.w3.org/1999/xlink" version="1.1"><rect x="0" y="0" width="900" height="600" fill="#e7e0d7"></rect><g transform="translate(457.09622895839914 289.3816069713611)"><path d="M70 -77.4C89.9 -66.8 104.5 -43.9 104.1 -21.9C103.7 0 88.2 21 72.6 36.2C57 51.5 41.4 61 20.7 77.5C0 94 -25.7 117.5 -44.4 114.1C-63.1 110.6 -74.8 80.3 -88.6 52.9C-102.4 25.5 -118.2 0.9 -118.3 -24.8C-118.4 -50.5 -102.9 -77.3 -80.6 -87.6C-58.3 -97.8 -29.1 -91.4 -2 -89C25.1 -86.5 50.1 -88.1 70 -77.4" fill="#56150c"></path></g></svg>