<svg id="visual" viewBox="0 0 1920 1080" width="1920" height="1080" xmlns="http://www.w3.org/2000/svg" xmlns:xlink="http://www.w3.org/1999/xlink" version="1.1"><rect x="0" y="0" width="1920" height="1080" fill="#e7e0d7"></rect><defs><linearGradient id="grad1_0" x1="43.8%" y1="100%" x2="100%" y2="0%"><stop offset="14.444444444444446%" stop-color="#e7e0d7" stop-opacity="1"></stop><stop offset="85.55555555555554%" stop-color="#e7e0d7" stop-opacity="1"></stop></linearGradient></defs><defs><linearGradient id="grad2_0" x1="0%" y1="100%" x2="56.3%" y2="0%"><stop offset="14.444444444444446%" stop-color="#e7e0d7" stop-opacity="1"></stop><stop offset="85.55555555555554%" stop-color="#e7e0d7" stop-opacity="1"></stop></linearGradient></defs><g transform="translate(1920, 1080)"><path d="M-756 0C-726.7 -96.8 -697.4 -193.6 -648.6 -268.6C-599.7 -343.7 -531.4 -397.1 -473.1 -473.1C-414.7 -549 -366.5 -647.5 -289.3 -698.5C-212.1 -749.4 -106.1 -752.7 0 -756L0 0Z" fill="#841507"></path></g><g transform="translate(0, 0)"><path d="M756 0C724.2 90.8 692.3 181.5 659.6 273.2C627 365 593.5 457.6 532.5 532.5C471.4 607.3 382.7 664.2 289.3 698.5C196 732.7 98 744.4 0 756L0 0Z" fill="#841507"></path></g></svg>