<?xml version="1.0" standalone="no"?>
<!DOCTYPE svg PUBLIC "-//W3C//DTD SVG 20010904//EN"
 "http://www.w3.org/TR/2001/REC-SVG-20010904/DTD/svg10.dtd">
<svg version="1.0" xmlns="http://www.w3.org/2000/svg"
 width="900.000000pt" height="900.000000pt" viewBox="0 0 900.000000 900.000000"
 preserveAspectRatio="xMidYMid meet">
<metadata>
Created by potrace 1.14, written by Peter Selinger 2001-2017
</metadata>
<g transform="translate(0.000000,900.000000) scale(0.100000,-0.100000)"
fill="#000000" stroke="none">
<path d="M7761 8069 c-128 -32 -243 -61 -255 -63 -11 -2 -64 -14 -116 -26
-116 -27 -375 -82 -450 -96 -14 -3 -77 -16 -140 -29 -63 -13 -126 -26 -140
-29 -60 -10 -287 -69 -357 -93 -186 -62 -406 -201 -573 -364 -216 -210 -392
-512 -486 -834 -22 -74 -22 -73 -29 -110 -3 -16 -8 -36 -10 -43 -2 -7 -7 -34
-10 -60 -4 -26 -9 -58 -11 -72 -10 -49 -11 -307 -2 -383 11 -95 32 -149 53
-141 8 4 15 11 15 17 0 25 155 321 215 412 64 95 188 260 237 316 13 14 40 46
61 70 105 120 280 288 367 350 160 115 440 220 440 166 0 -24 -114 -170 -200
-257 -110 -112 -227 -262 -392 -505 -116 -172 -169 -258 -285 -470 -43 -78
-263 -521 -263 -530 0 -2 -15 -36 -34 -77 -80 -174 -317 -779 -351 -898 -4
-14 -13 -38 -20 -55 -29 -64 -217 -622 -275 -815 -17 -58 -34 -112 -37 -120
-3 -8 -7 -20 -9 -27 -6 -32 -191 -590 -224 -678 -51 -134 -61 -155 -76 -155
-22 0 -99 225 -184 540 -53 194 -121 453 -130 490 -19 87 -173 665 -190 717
-6 18 -13 40 -15 50 -9 47 -121 420 -166 556 -168 506 -379 1021 -518 1261
-28 49 -51 91 -51 93 0 23 -355 518 -413 578 -7 6 -27 30 -45 53 -19 23 -43
51 -54 64 -10 13 -28 33 -38 45 -275 321 -508 547 -735 714 -33 24 -62 46 -65
49 -13 14 -206 134 -272 169 -141 74 -283 116 -294 86 -7 -16 29 -76 68 -117
20 -20 60 -65 149 -168 12 -14 54 -63 93 -110 39 -47 73 -87 76 -90 19 -18
215 -270 304 -390 117 -157 297 -426 393 -585 190 -316 411 -748 533 -1040 35
-82 66 -159 71 -170 19 -45 71 -181 74 -190 1 -5 7 -21 12 -35 20 -49 193
-568 238 -715 53 -171 155 -513 160 -535 2 -8 36 -127 75 -265 40 -137 74
-256 76 -265 2 -8 38 -150 80 -315 42 -165 77 -307 79 -315 2 -8 12 -53 24
-100 47 -197 83 -347 87 -368 3 -13 18 -80 34 -150 24 -105 57 -260 76 -357 2
-11 8 -40 14 -65 5 -25 12 -56 14 -70 2 -14 14 -68 26 -120 12 -52 24 -106 26
-120 3 -14 10 -45 15 -70 6 -25 13 -56 15 -70 3 -14 9 -38 14 -55 5 -16 12
-45 15 -62 12 -73 40 -127 75 -148 33 -19 51 -20 265 -20 294 0 296 1 345 154
24 75 66 282 85 416 3 22 8 51 10 65 3 14 7 39 9 55 10 59 26 160 30 185 3 14
7 45 10 70 3 25 8 55 10 67 3 11 7 43 11 70 3 26 10 71 15 98 5 28 12 68 15
90 7 49 20 126 40 240 13 74 17 97 41 220 14 72 28 144 31 160 10 59 85 372
124 520 300 1122 649 2002 849 2145 15 11 64 29 107 40 73 18 91 22 168 35
285 51 494 117 698 222 78 41 274 164 287 182 3 3 23 19 44 35 110 83 303 303
378 431 75 130 123 293 153 515 3 25 8 56 10 70 5 36 17 157 30 320 4 41 8 86
10 100 2 14 7 59 10 100 9 107 38 245 84 395 45 152 65 240 57 261 -9 24 -72
15 -315 -47z"/>
</g>
</svg>
